<svg xmlns="http://www.w3.org/2000/svg" width="47" height="47" viewBox="0 0 47 47"><path fill="#44d62c" d="M1.74 23.08a21.36 21.36 0 0 0 21.34 21.33 21.36 21.36 0 0 0 21.33-21.33A21.36 21.36 0 0 0 23.08 1.74 21.36 21.36 0 0 0 1.74 23.08zm-1.74 0A23.1 23.1 0 0 1 23.08 0a23.1 23.1 0 0 1 23.07 23.08 23.1 23.1 0 0 1-23.07 23.07A23.1 23.1 0 0 1 0 23.08z"/><path fill="#44d62c" d="M18.05 25.62l-1.24 2.47 2.47-1.23 16.53-16.53-1.24-1.23zm-3.8 5.03a.87.87 0 0 1-.16-1l2.47-4.93a.87.87 0 0 1 .16-.23L33.96 7.25a.89.89 0 0 1 1.23 0l2.46 2.47c.17.16.26.38.26.61 0 .24-.09.46-.26.62L20.41 28.19a.89.89 0 0 1-.22.16l-2.47 1.23-2.46 1.23a.8.8 0 0 1-.39.1.87.87 0 0 1-.62-.26z"/><path fill="#44d62c" d="M20.33 28.2a.85.85 0 0 1-.61-.25l-2.47-2.46a.9.9 0 0 1 0-1.24.9.9 0 0 1 1.24 0l2.46 2.47a.87.87 0 0 1-.62 1.48"/><path fill="#44d62c" d="M7.87 39.84a.87.87 0 0 1-.87-.87v-23.1c0-.48.39-.87.87-.87h15.69a.87.87 0 0 1 0 1.74H8.74v22.23c0 .48-.39.87-.87.87M39.01 39.87a.87.87 0 0 1-.87-.87V16.74h-2.27a.87.87 0 0 1 0-1.74h3.14c.48 0 .87.39.87.87V39c0 .48-.39.87-.87.87"/></svg>