<svg id="Layer_1" data-name="Layer 1" xmlns="http://www.w3.org/2000/svg" viewBox="0 0 34 34"><defs><style>.cls-1{fill:#00d600;}</style></defs><title>broadcaster-icon</title><path class="cls-1" d="M27.14,14A.7.7,0,0,1,26,13.64a7,7,0,0,0-5.3-5.4A.7.7,0,1,1,21,6.86a8.37,8.37,0,0,1,6.38,6.5A.7.7,0,0,1,27.14,14Z" transform="translate(0 -0.03)"/><path class="cls-1" d="M24.29,14.38A.7.7,0,0,1,23.11,14a3.83,3.83,0,0,0-2.91-3,.71.71,0,0,1,.31-1.38,5.24,5.24,0,0,1,4,4.06A.71.71,0,0,1,24.29,14.38Z" transform="translate(0 -0.03)"/><path class="cls-1" d="M20.58,4a.64.64,0,0,1,.56-.17c.08,0,7.64,1.45,8.85,9.16a.64.64,0,1,1-1.27.2C27.66,6.4,21,5.14,20.92,5.12A.64.64,0,0,1,20.58,4Z" transform="translate(0 -0.03)"/><path class="cls-1" d="M17,34A17,17,0,1,1,17,0a.68.68,0,1,1,0,1.35A15.65,15.65,0,1,0,32.65,17,.68.68,0,0,1,34,17,17,17,0,0,1,17,34Z" transform="translate(0 -0.03)"/><path class="cls-1" d="M32.91,14.06a.68.68,0,0,1-.66-.53A15.73,15.73,0,0,0,20.61,1.8.68.68,0,0,1,20.92.49,17.09,17.09,0,0,1,33.57,13.23a.68.68,0,0,1-.51.81Z" transform="translate(0 -0.03)"/><path class="cls-1" d="M17,20.27a2.41,2.41,0,1,1,2.41-2.41A2.41,2.41,0,0,1,17,20.27Zm0-3.67a1.26,1.26,0,1,0,1.27,1.26A1.26,1.26,0,0,0,17,16.59Z" transform="translate(0 -0.03)"/><path class="cls-1" d="M18,21.28h0Z" transform="translate(0 -0.03)"/><polygon class="cls-1" points="19.76 23 19.76 23 19.76 23 19.76 23"/><path class="cls-1" d="M17.47,21.13h0Z" transform="translate(0 -0.03)"/><path class="cls-1" d="M13.95,23.95l0-.14Z" transform="translate(0 -0.03)"/><path class="cls-1" d="M16,21.29h0Z" transform="translate(0 -0.03)"/><polygon class="cls-1" points="15.12 21.8 15.12 21.8 15.12 21.8 15.12 21.8"/><path class="cls-1" d="M14.06,23.52l0-.12Z" transform="translate(0 -0.03)"/><path class="cls-1" d="M16.45,21.14h0Z" transform="translate(0 -0.03)"/><polygon class="cls-1" points="14.24 23 14.24 23 14.24 23 14.24 23"/><path class="cls-1" d="M20.1,24.24s0,.09,0,.13S20.1,24.28,20.1,24.24Z" transform="translate(0 -0.03)"/><path class="cls-1" d="M13.88,24.37s0-.09,0-.13S13.89,24.32,13.88,24.37Z" transform="translate(0 -0.03)"/><path class="cls-1" d="M19.91,23.41l0,.12Z" transform="translate(0 -0.03)"/><path class="cls-1" d="M20,23.81l0,.14Z" transform="translate(0 -0.03)"/><path class="cls-1" d="M25.63,15.83a.6.6,0,0,0-.6.6v5.41H20.39a4,4,0,0,0-6.78,0h-6V11.64h9.94a.6.6,0,1,0,0-1.2H7a.6.6,0,0,0-.6.6v11.4A.6.6,0,0,0,7,23h6a5.41,5.41,0,0,0-.3,1.77c0,2.43,1.6,3.88,4.28,3.88s4.29-1.45,4.29-3.88A5.41,5.41,0,0,0,21,23h4.64a.6.6,0,0,0,.6-.6v-6A.6.6,0,0,0,25.63,15.83ZM17,27.54c-1.43,0-3.14-.47-3.14-2.73,0-.15,0-.29,0-.43s0-.09,0-.13,0-.2,0-.29l0-.14c0-.1,0-.19.08-.28l0-.12c0-.13.09-.25.15-.37h0a3.64,3.64,0,0,1,.88-1.2h0a3,3,0,0,1,.85-.54h0a2.72,2.72,0,0,1,.45-.14h.08a2.41,2.41,0,0,1,.95,0h.08a2.72,2.72,0,0,1,.45.14h0A3.37,3.37,0,0,1,19.76,23h0c.05.12.1.24.15.37l0,.12c0,.09.05.19.08.28l0,.14c0,.1,0,.19,0,.29s0,.09,0,.13,0,.29,0,.43C20.14,27.06,18.43,27.54,17,27.54Z" transform="translate(0 -0.03)"/><path class="cls-1" d="M13.86,24.8c0-.15,0-.29,0-.43C13.87,24.51,13.86,24.66,13.86,24.8Z" transform="translate(0 -0.03)"/><path class="cls-1" d="M13.9,24.24c0-.1,0-.2,0-.29C13.93,24,13.91,24.14,13.9,24.24Z" transform="translate(0 -0.03)"/><path class="cls-1" d="M14.09,23.41c0-.13.09-.25.15-.37C14.18,23.15,14.14,23.28,14.09,23.41Z" transform="translate(0 -0.03)"/><path class="cls-1" d="M14,23.81c0-.1,0-.19.08-.28C14,23.62,14,23.71,14,23.81Z" transform="translate(0 -0.03)"/><path class="cls-1" d="M19.76,23c.05.12.1.25.15.37C19.86,23.28,19.82,23.15,19.76,23Z" transform="translate(0 -0.03)"/><path class="cls-1" d="M20.05,23.95c0,.1,0,.19,0,.29C20.09,24.14,20.07,24,20.05,23.95Z" transform="translate(0 -0.03)"/><path class="cls-1" d="M16.53,21.13a2.63,2.63,0,0,1,.47,0A2.65,2.65,0,0,0,16.53,21.13Z" transform="translate(0 -0.03)"/><path class="cls-1" d="M15.11,21.83a3,3,0,0,1,.85-.54A3,3,0,0,0,15.11,21.83Z" transform="translate(0 -0.03)"/><path class="cls-1" d="M16,21.28a2.71,2.71,0,0,1,.45-.14A2.72,2.72,0,0,0,16,21.28Z" transform="translate(0 -0.03)"/><path class="cls-1" d="M17.55,21.14a2.71,2.71,0,0,1,.45.14A2.72,2.72,0,0,0,17.55,21.14Z" transform="translate(0 -0.03)"/><path class="cls-1" d="M17,21.08a2.63,2.63,0,0,1,.47,0A2.66,2.66,0,0,0,17,21.08Z" transform="translate(0 -0.03)"/></svg>