<svg id="Layer_1" data-name="Layer 1" xmlns="http://www.w3.org/2000/svg" viewBox="0 0 19.64 18"><defs><style>.cls-1{fill:#888;}</style></defs><title>cart</title><g id="Layer_2" data-name="Layer 2"><g id="Layer_1-2" data-name="Layer 1-2"><circle class="cls-1" cx="7.5" cy="16.5" r="1.5"/><circle class="cls-1" cx="15.5" cy="16.5" r="1.5"/><path class="cls-1" d="M.5,0h3A.5.5,0,0,1,4,.5H4a.5.5,0,0,1-.5.5H.5A.5.5,0,0,1,0,.5H0A.5.5,0,0,1,.5,0Z"/><path class="cls-1" d="M4.34,2H19.12a.5.5,0,0,1,.5.5h0a.5.5,0,0,1-.5.5H4.34a.5.5,0,0,1-.5-.5h0A.5.5,0,0,1,4.34,2Z"/><path class="cls-1" d="M6.25,10H17.18a.5.5,0,0,1,.5.5h0a.5.5,0,0,1-.5.5H6.25a.5.5,0,0,1-.5-.5h0A.5.5,0,0,1,6.25,10Z"/><path class="cls-1" d="M19.25,2.06h0a.5.5,0,0,1,.37.6l-1.87,7.78a.49.49,0,0,1-.6.37h0a.49.49,0,0,1-.37-.6l1.87-7.78A.5.5,0,0,1,19.25,2.06Z"/><path class="cls-1" d="M3.42.2h0A.52.52,0,0,1,4,.57L7.35,14.38A.5.5,0,0,1,7,15H7a.5.5,0,0,1-.61-.37L3.05.81A.52.52,0,0,1,3.42.2Z"/><path class="cls-1" d="M6.87,14h10.3a.5.5,0,0,1,.5.5h0a.5.5,0,0,1-.5.5H6.87a.5.5,0,0,1-.5-.5h0A.5.5,0,0,1,6.87,14Z"/></g></g></svg>